<?xml version="1.0" standalone="no"?><!DOCTYPE svg PUBLIC "-//W3C//DTD SVG 1.1//EN" "http://www.w3.org/Graphics/SVG/1.1/DTD/svg11.dtd"><svg t="1708432668538" class="icon" viewBox="0 0 1024 1024" version="1.1" xmlns="http://www.w3.org/2000/svg" p-id="3393" xmlns:xlink="http://www.w3.org/1999/xlink" width="128" height="128"><path d="M874.666667 853.333333H149.333333c-12.8 0-21.333333-8.533333-21.333333-21.333333s8.533333-21.333333 21.333333-21.333333h725.333334c12.8 0 21.333333 8.533333 21.333333 21.333333s-8.533333 21.333333-21.333333 21.333333zM298.666667 725.333333h-85.333334c-23.466667 0-42.666667-19.2-42.666666-42.666666V426.666667c0-23.466667 19.2-42.666667 42.666666-42.666667h85.333334c23.466667 0 42.666667 19.2 42.666666 42.666667v256c0 23.466667-19.2 42.666667-42.666666 42.666666z m0-42.666666v21.333333-21.333333z m0-256h-85.333334v256h85.333334V426.666667zM554.666667 725.333333h-85.333334c-23.466667 0-42.666667-19.2-42.666666-42.666666V341.333333c0-23.466667 19.2-42.666667 42.666666-42.666666h85.333334c23.466667 0 42.666667 19.2 42.666666 42.666666v341.333334c0 23.466667-19.2 42.666667-42.666666 42.666666z m0-42.666666v21.333333-21.333333z m0-341.333334h-85.333334v341.333334h85.333334V341.333333zM810.666667 725.333333h-85.333334c-23.466667 0-42.666667-19.2-42.666666-42.666666V213.333333c0-23.466667 19.2-42.666667 42.666666-42.666666h85.333334c23.466667 0 42.666667 19.2 42.666666 42.666666v469.333334c0 23.466667-19.2 42.666667-42.666666 42.666666z m0-42.666666v21.333333-21.333333z m0-469.333334h-85.333334v469.333334h85.333334V213.333333z" fill="#666666" p-id="3394"></path></svg>